<svg width="391" height="62" viewBox="0 0 391 62" fill="none" xmlns="http://www.w3.org/2000/svg">
<path d="M33.664 37.8888C33.4638 37.7517 31.1607 37.2066 29.7745 37.0261C28.9444 36.918 27.5515 37.1575 26.7709 37.529C26.4694 37.6725 26.3512 37.992 26.2926 38.2679C26.1688 38.8514 27.2844 39.4196 28.1754 39.9848C29.6898 40.9456 30.1762 41.3058 30.4683 41.9192C30.5981 42.1918 30.5677 42.5199 30.4741 42.8386C30.2841 43.486 29.1178 43.5085 25.4337 43.6218C22.1568 43.6675 16.0226 43.6892 12.7901 43.7214C9.55755 43.7536 9.41268 43.7956 9 43.9662" stroke="#C4614A" stroke-width="2" stroke-linecap="round"/>
<path d="M33.2767 33.2862C33.2898 33.419 33.4183 33.9294 33.6785 34.8655C33.7673 35.172 33.878 35.5256 33.9633 35.8456C34.0486 36.1656 34.105 36.4414 34.1594 36.707" stroke="#C4614A" stroke-width="2" stroke-linecap="round"/>
<path d="M34.2455 37.1277C34.4759 36.8434 35.0729 36.2058 35.7491 35.5355C36.1139 35.0887 36.4468 34.717 36.6402 34.5563C36.7314 34.485 36.8088 34.4349 37.0527 34.3057" stroke="#C4614A" stroke-width="2" stroke-linecap="round"/>
<path d="M33.3286 32.6771C33.341 32.6352 33.8344 31.5723 34.5963 29.9322C34.9303 29.2133 35.1167 28.7752 35.5346 27.9534C36.1701 26.7036 36.9008 25.1776 37.5563 23.6523C38.8536 21.2169 39.3213 20.3304 39.4825 20.0558C39.5914 19.8704 39.7554 19.5917 40.0643 19.1349" stroke="#C4614A" stroke-width="2" stroke-linecap="round"/>
<path d="M37.1754 33.9984C37.2071 33.8234 37.2965 33.2339 38.1571 31.0692C38.8445 29.3399 40.4403 26.1621 41.2416 24.4604C42.2541 22.4069 42.8756 21.4216 43.2278 20.7999C43.2939 20.7164 43.3827 20.6554 43.5808 20.4776" stroke="#C4614A" stroke-width="2" stroke-linecap="round"/>
<path d="M40.1166 19.2033C40.2761 19.2144 40.7961 19.3328 41.7163 19.7375C42.0511 19.9147 42.2871 20.0304 42.5182 20.1364C42.6424 20.2024 42.7807 20.2932 42.9231 20.3868" stroke="#C4614A" stroke-width="2" stroke-linecap="round"/>
<path d="M40.7538 18.6087C40.8326 18.5661 41.2033 18.403 41.9613 18.2325C42.4335 18.1263 42.8737 18.5329 43.1418 18.8681C43.4068 19.1995 43.4999 19.8558 43.4531 20.4156C43.4436 20.5295 43.3896 20.6221 43.3208 20.6866C43.252 20.7511 43.1462 20.7803 43.0462 20.7742C42.6367 20.7493 42.2586 20.4904 41.8173 20.4107C41.2402 20.3065 40.9338 20.2955 40.828 20.2692C40.7347 20.246 41.1858 20.338 41.462 20.4434C41.6761 20.5251 41.8226 20.8146 41.941 21.0325C41.6606 20.9983 41.2942 20.7953 40.9284 20.5902C40.8323 20.5452 40.7331 20.5073 40.42 20.3745" stroke="#C4614A" stroke-width="2" stroke-linecap="round"/>
<path d="M68.2417 43.2138C67.0897 43.2138 66.1057 42.9018 65.2897 42.2778C64.4977 41.6538 64.1017 40.7778 64.1017 39.6498V28.2738H61.2217V27.9858L64.3537 26.6178L67.1617 22.6578H67.4857V26.6178H72.2737V28.2738H67.4857V38.9658C67.4857 39.5658 67.7497 40.0218 68.2777 40.3338C68.8297 40.6218 69.4777 40.7658 70.2217 40.7658C70.6777 40.7658 71.0977 40.7418 71.4817 40.6938C71.8657 40.6458 72.2137 40.5858 72.5257 40.5138H72.6337V40.9458C72.3457 41.4978 71.8177 42.0138 71.0497 42.4938C70.3057 42.9738 69.3697 43.2138 68.2417 43.2138ZM77.4327 42.8538V42.2778L79.7367 41.1258V19.9578L77.5407 18.1218V17.8338L82.8687 15.8538H83.1207V28.9218H83.2647C84.1767 28.0098 85.0527 27.3378 85.8927 26.9058C86.7327 26.4738 87.6807 26.2578 88.7367 26.2578C90.1527 26.2578 91.3167 26.6178 92.2287 27.3378C93.1407 28.0338 93.5967 29.0898 93.5967 30.5058V41.1258L95.8647 42.2778V42.8538H87.8007V42.2778L90.1767 41.2338V32.1618C90.1767 31.1298 89.8647 30.3618 89.2407 29.8578C88.6167 29.3298 87.8127 29.0658 86.8287 29.0658C86.2287 29.0658 85.5687 29.1738 84.8487 29.3898C84.1527 29.5818 83.5767 29.8698 83.1207 30.2538V41.2338L85.4967 42.2778V42.8538H77.4327ZM108.567 43.2138C106.215 43.2138 104.355 42.5058 102.987 41.0898C101.619 39.6738 100.935 37.7898 100.935 35.4378C100.935 33.6618 101.295 32.0778 102.015 30.6858C102.759 29.2938 103.731 28.2138 104.931 27.4458C106.155 26.6538 107.475 26.2578 108.891 26.2578C110.787 26.2578 112.275 26.9178 113.355 28.2378C114.459 29.5338 115.023 31.4058 115.047 33.8538L114.867 34.0338H104.247C104.271 35.1378 104.475 36.1578 104.859 37.0938C105.267 38.0298 105.915 38.7858 106.803 39.3618C107.691 39.9378 108.867 40.2258 110.331 40.2258C111.723 40.2258 113.271 39.7698 114.975 38.8578H115.083V39.2898C114.507 40.3938 113.655 41.3298 112.527 42.0978C111.399 42.8418 110.079 43.2138 108.567 43.2138ZM108.243 27.8418C107.187 27.8418 106.311 28.2378 105.615 29.0298C104.943 29.8218 104.523 30.9378 104.355 32.3778H111.987C111.747 30.7698 111.315 29.6178 110.691 28.9218C110.067 28.2018 109.251 27.8418 108.243 27.8418ZM137.738 43.2138C136.586 43.2138 135.602 43.1058 134.786 42.8898C133.97 42.6978 133.13 42.3858 132.266 41.9538V37.9218H132.806L133.958 39.8658C134.75 41.1858 135.974 41.8458 137.63 41.8458C138.59 41.8458 139.322 41.6298 139.826 41.1978C140.354 40.7658 140.618 40.1658 140.618 39.3978C140.618 38.7738 140.462 38.2698 140.15 37.8858C139.838 37.5018 139.37 37.1658 138.746 36.8778C138.146 36.5898 137.402 36.2418 136.514 35.8338C135.266 35.2818 134.306 34.6698 133.634 33.9978C132.986 33.3258 132.662 32.4018 132.662 31.2258C132.662 30.2898 132.914 29.4498 133.418 28.7058C133.946 27.9618 134.618 27.3738 135.434 26.9418C136.25 26.4858 137.114 26.2578 138.026 26.2578C138.89 26.2578 139.706 26.3658 140.474 26.5818C141.242 26.7738 141.998 27.0618 142.742 27.4458V31.4418H142.238L141.05 29.5698C140.258 28.3218 139.286 27.6978 138.134 27.6978C137.342 27.6978 136.706 27.9018 136.226 28.3098C135.746 28.6938 135.506 29.2338 135.506 29.9298C135.506 30.6978 135.782 31.2978 136.334 31.7298C136.886 32.1378 137.774 32.6058 138.998 33.1338C139.67 33.4458 140.342 33.7818 141.014 34.1418C141.686 34.4778 142.25 34.9578 142.706 35.5818C143.162 36.1818 143.39 37.0458 143.39 38.1738C143.39 39.2778 143.09 40.2018 142.49 40.9458C141.914 41.6898 141.194 42.2538 140.33 42.6378C139.466 43.0218 138.602 43.2138 137.738 43.2138ZM155.12 43.2138C153.968 43.2138 152.984 42.9018 152.168 42.2778C151.376 41.6538 150.98 40.7778 150.98 39.6498V28.2738H148.1V27.9858L151.232 26.6178L154.04 22.6578H154.364V26.6178H159.152V28.2738H154.364V38.9658C154.364 39.5658 154.628 40.0218 155.156 40.3338C155.708 40.6218 156.356 40.7658 157.1 40.7658C157.556 40.7658 157.976 40.7418 158.36 40.6938C158.744 40.6458 159.092 40.5858 159.404 40.5138H159.512V40.9458C159.224 41.4978 158.696 42.0138 157.928 42.4938C157.184 42.9738 156.248 43.2138 155.12 43.2138ZM168.307 43.2138C167.131 43.2138 166.171 42.8778 165.427 42.2058C164.683 41.5098 164.311 40.5738 164.311 39.3978C164.311 38.1978 164.731 37.1778 165.571 36.3378C166.435 35.4978 167.911 34.8258 169.999 34.3218L173.455 33.4938V30.9738C173.455 30.1098 173.155 29.3898 172.555 28.8138C171.979 28.2378 171.271 27.9498 170.431 27.9498C170.095 27.9498 169.759 27.9858 169.423 28.0578C169.087 28.1298 168.667 28.2858 168.163 28.5258V31.9098H165.751C165.343 31.9098 165.055 31.8258 164.887 31.6578C164.743 31.4658 164.671 31.1418 164.671 30.6858C164.671 29.9898 164.971 29.3058 165.571 28.6338C166.171 27.9378 166.987 27.3738 168.019 26.9418C169.051 26.4858 170.203 26.2578 171.475 26.2578C173.251 26.2578 174.595 26.6178 175.507 27.3378C176.419 28.0578 176.875 29.0538 176.875 30.3258V40.3698C177.019 40.5618 177.247 40.7178 177.559 40.8378C177.871 40.9338 178.291 40.9818 178.819 40.9818H180.079L180.223 41.0538V41.2698C179.935 41.7738 179.491 42.2298 178.891 42.6378C178.315 43.0218 177.607 43.2138 176.767 43.2138C175.951 43.2138 175.291 43.0098 174.787 42.6018C174.283 42.1938 173.923 41.6538 173.707 40.9818H173.455C172.831 41.6298 172.063 42.1698 171.151 42.6018C170.239 43.0098 169.291 43.2138 168.307 43.2138ZM167.587 38.5698C167.587 40.0578 168.463 40.8018 170.215 40.8018C170.743 40.8018 171.259 40.7538 171.763 40.6578C172.267 40.5378 172.831 40.3458 173.455 40.0818V34.7538C171.703 35.0898 170.407 35.4498 169.567 35.8338C168.751 36.2178 168.211 36.6378 167.947 37.0938C167.707 37.5258 167.587 38.0178 167.587 38.5698ZM190.775 42.8538L184.151 28.2738L181.775 27.1938V26.6178H190.739V27.1938L187.895 28.2378V28.4538L192.323 37.9938H192.467L196.355 28.6338V28.4538L193.835 27.1938V26.6178H200.891V27.1938L198.263 28.4178L191.675 42.8538H190.775ZM207.678 43.2138C206.502 43.2138 205.542 42.8778 204.798 42.2058C204.054 41.5098 203.682 40.5738 203.682 39.3978C203.682 38.1978 204.102 37.1778 204.942 36.3378C205.806 35.4978 207.282 34.8258 209.37 34.3218L212.826 33.4938V30.9738C212.826 30.1098 212.526 29.3898 211.926 28.8138C211.35 28.2378 210.642 27.9498 209.802 27.9498C209.466 27.9498 209.13 27.9858 208.794 28.0578C208.458 28.1298 208.038 28.2858 207.534 28.5258V31.9098H205.122C204.714 31.9098 204.426 31.8258 204.258 31.6578C204.114 31.4658 204.042 31.1418 204.042 30.6858C204.042 29.9898 204.342 29.3058 204.942 28.6338C205.542 27.9378 206.358 27.3738 207.39 26.9418C208.422 26.4858 209.574 26.2578 210.846 26.2578C212.622 26.2578 213.966 26.6178 214.878 27.3378C215.79 28.0578 216.246 29.0538 216.246 30.3258V40.3698C216.39 40.5618 216.618 40.7178 216.93 40.8378C217.242 40.9338 217.662 40.9818 218.19 40.9818H219.45L219.594 41.0538V41.2698C219.306 41.7738 218.862 42.2298 218.262 42.6378C217.686 43.0218 216.978 43.2138 216.138 43.2138C215.322 43.2138 214.662 43.0098 214.158 42.6018C213.654 42.1938 213.294 41.6538 213.078 40.9818H212.826C212.202 41.6298 211.434 42.1698 210.522 42.6018C209.61 43.0098 208.662 43.2138 207.678 43.2138ZM206.958 38.5698C206.958 40.0578 207.834 40.8018 209.586 40.8018C210.114 40.8018 210.63 40.7538 211.134 40.6578C211.638 40.5378 212.202 40.3458 212.826 40.0818V34.7538C211.074 35.0898 209.778 35.4498 208.938 35.8338C208.122 36.2178 207.582 36.6378 207.318 37.0938C207.078 37.5258 206.958 38.0178 206.958 38.5698ZM223.666 42.8538V42.2778L225.97 41.1258V30.3618L223.774 28.5618V28.2738L228.742 26.2578H228.994L229.318 28.9218H229.498C230.41 28.0098 231.286 27.3378 232.126 26.9058C232.966 26.4738 233.914 26.2578 234.97 26.2578C236.386 26.2578 237.55 26.6178 238.462 27.3378C239.374 28.0338 239.83 29.0898 239.83 30.5058V41.1258L242.098 42.2778V42.8538H234.034V42.2778L236.41 41.1258V32.1618C236.41 31.1298 236.098 30.3618 235.474 29.8578C234.85 29.3298 234.046 29.0658 233.062 29.0658C232.462 29.0658 231.802 29.1738 231.082 29.3898C230.386 29.5818 229.81 29.8698 229.354 30.2538V41.1258L231.73 42.2778V42.8538H223.666ZM254.516 36.9858C253.964 36.9858 253.424 36.9258 252.896 36.8058C252.104 37.1658 251.6 37.5378 251.384 37.9218C251.168 38.2818 251.06 38.6298 251.06 38.9658C251.06 39.3738 251.216 39.7218 251.528 40.0098C251.864 40.2978 252.404 40.4418 253.148 40.4418H257.828C259.604 40.4418 260.912 40.8498 261.752 41.6658C262.592 42.4578 263.012 43.6338 263.012 45.1938C263.012 46.2498 262.676 47.2578 262.004 48.2178C261.332 49.1778 260.36 49.9578 259.088 50.5578C257.816 51.1818 256.292 51.4938 254.516 51.4938C253.124 51.4938 251.972 51.2658 251.06 50.8098C250.148 50.3538 249.476 49.7538 249.044 49.0098C248.612 48.2658 248.396 47.4498 248.396 46.5618C248.396 46.2738 248.42 45.9978 248.468 45.7338C248.54 45.4938 248.636 45.2538 248.756 45.0138L251.06 43.2858V43.2498C250.22 43.0098 249.572 42.6018 249.116 42.0258C248.684 41.4498 248.468 40.7778 248.468 40.0098C248.468 39.4338 248.6 38.8098 248.864 38.1378L251.636 36.3738C250.676 35.9178 249.908 35.2698 249.332 34.4298C248.756 33.5898 248.468 32.6418 248.468 31.5858C248.468 30.6018 248.732 29.7018 249.26 28.8858C249.812 28.0698 250.544 27.4338 251.456 26.9778C252.368 26.4978 253.388 26.2578 254.516 26.2578C255.044 26.2578 255.608 26.3298 256.208 26.4738C256.808 26.5938 257.276 26.7498 257.612 26.9418L263.228 26.6178V28.5978L259.376 28.3818L259.304 28.4178C259.664 28.8258 259.964 29.3178 260.204 29.8938C260.444 30.4458 260.564 31.0098 260.564 31.5858C260.564 32.6178 260.3 33.5418 259.772 34.3578C259.244 35.1738 258.524 35.8218 257.612 36.3018C256.7 36.7578 255.668 36.9858 254.516 36.9858ZM254.84 35.4738C255.656 35.4738 256.304 35.1138 256.784 34.3938C257.264 33.6738 257.504 32.7738 257.504 31.6938C257.504 30.4698 257.192 29.4978 256.568 28.7778C255.968 28.0578 255.224 27.6978 254.336 27.6978C253.472 27.6978 252.788 28.0578 252.284 28.7778C251.804 29.4978 251.564 30.4098 251.564 31.5138C251.564 32.7138 251.864 33.6738 252.464 34.3938C253.088 35.1138 253.88 35.4738 254.84 35.4738ZM251.024 45.8418C251.024 47.1138 251.408 48.1698 252.176 49.0098C252.968 49.8738 253.988 50.3058 255.236 50.3058C256.676 50.3058 257.84 49.9098 258.728 49.1178C259.64 48.3498 260.096 47.4498 260.096 46.4178C260.096 45.4818 259.868 44.7498 259.412 44.2218C258.956 43.6938 257.972 43.4298 256.46 43.4298H252.68C252.656 43.4298 252.632 43.4298 252.608 43.4298C252.032 43.6218 251.624 43.9338 251.384 44.3658C251.144 44.7978 251.024 45.2898 251.024 45.8418ZM276.12 43.2138C273.768 43.2138 271.908 42.5058 270.54 41.0898C269.172 39.6738 268.488 37.7898 268.488 35.4378C268.488 33.6618 268.848 32.0778 269.568 30.6858C270.312 29.2938 271.284 28.2138 272.484 27.4458C273.708 26.6538 275.028 26.2578 276.444 26.2578C278.34 26.2578 279.828 26.9178 280.908 28.2378C282.012 29.5338 282.576 31.4058 282.6 33.8538L282.42 34.0338H271.8C271.824 35.1378 272.028 36.1578 272.412 37.0938C272.82 38.0298 273.468 38.7858 274.356 39.3618C275.244 39.9378 276.42 40.2258 277.884 40.2258C279.276 40.2258 280.824 39.7698 282.528 38.8578H282.636V39.2898C282.06 40.3938 281.208 41.3298 280.08 42.0978C278.952 42.8418 277.632 43.2138 276.12 43.2138ZM275.796 27.8418C274.74 27.8418 273.864 28.2378 273.168 29.0298C272.496 29.8218 272.076 30.9378 271.908 32.3778H279.54C279.3 30.7698 278.868 29.6178 278.244 28.9218C277.62 28.2018 276.804 27.8418 275.796 27.8418ZM288.191 42.8538V42.2778L290.495 41.1258V30.3978L288.299 28.5618V28.2738L293.267 26.2578H293.555L293.879 29.5698H294.023C294.887 28.3938 295.679 27.5658 296.399 27.0858C297.143 26.5818 297.863 26.3298 298.559 26.3298C299.087 26.3298 299.519 26.4618 299.855 26.7258C300.215 26.9898 300.395 27.3738 300.395 27.8778C300.395 28.0218 300.359 28.2858 300.287 28.6698L299.963 30.1458L296.255 29.3898C295.343 29.7498 294.563 30.3858 293.915 31.2978V41.1258L296.543 42.2778V42.8538H288.191ZM315.85 42.8538V42.2778L318.118 41.1258V19.9578L315.958 18.1218V17.8338L321.25 15.8538H321.538V41.1258L323.77 42.2778V42.8538H315.85ZM333.014 22.0818C332.366 22.0818 331.826 21.8658 331.394 21.4338C330.962 21.0018 330.746 20.4618 330.746 19.8138C330.746 19.1418 330.962 18.6018 331.394 18.1938C331.826 17.7618 332.366 17.5458 333.014 17.5458C333.662 17.5458 334.202 17.7618 334.634 18.1938C335.066 18.6018 335.282 19.1418 335.282 19.8138C335.282 20.4618 335.066 21.0018 334.634 21.4338C334.202 21.8658 333.662 22.0818 333.014 22.0818ZM329.126 42.8538V42.2778L331.43 41.1258V30.3618L329.234 28.5258V28.2378L334.562 26.2578H334.814V41.1258L337.046 42.2778V42.8538H329.126ZM348.615 43.2138C347.463 43.2138 346.479 43.1058 345.663 42.8898C344.847 42.6978 344.007 42.3858 343.143 41.9538V37.9218H343.683L344.835 39.8658C345.627 41.1858 346.851 41.8458 348.507 41.8458C349.467 41.8458 350.199 41.6298 350.703 41.1978C351.231 40.7658 351.495 40.1658 351.495 39.3978C351.495 38.7738 351.339 38.2698 351.027 37.8858C350.715 37.5018 350.247 37.1658 349.623 36.8778C349.023 36.5898 348.279 36.2418 347.391 35.8338C346.143 35.2818 345.183 34.6698 344.511 33.9978C343.863 33.3258 343.539 32.4018 343.539 31.2258C343.539 30.2898 343.791 29.4498 344.295 28.7058C344.823 27.9618 345.495 27.3738 346.311 26.9418C347.127 26.4858 347.991 26.2578 348.903 26.2578C349.767 26.2578 350.583 26.3658 351.351 26.5818C352.119 26.7738 352.875 27.0618 353.619 27.4458V31.4418H353.115L351.927 29.5698C351.135 28.3218 350.163 27.6978 349.011 27.6978C348.219 27.6978 347.583 27.9018 347.103 28.3098C346.623 28.6938 346.383 29.2338 346.383 29.9298C346.383 30.6978 346.659 31.2978 347.211 31.7298C347.763 32.1378 348.651 32.6058 349.875 33.1338C350.547 33.4458 351.219 33.7818 351.891 34.1418C352.563 34.4778 353.127 34.9578 353.583 35.5818C354.039 36.1818 354.267 37.0458 354.267 38.1738C354.267 39.2778 353.967 40.2018 353.367 40.9458C352.791 41.6898 352.071 42.2538 351.207 42.6378C350.343 43.0218 349.479 43.2138 348.615 43.2138ZM365.997 43.2138C364.845 43.2138 363.861 42.9018 363.045 42.2778C362.253 41.6538 361.857 40.7778 361.857 39.6498V28.2738H358.977V27.9858L362.109 26.6178L364.917 22.6578H365.241V26.6178H370.029V28.2738H365.241V38.9658C365.241 39.5658 365.505 40.0218 366.033 40.3338C366.585 40.6218 367.233 40.7658 367.977 40.7658C368.433 40.7658 368.853 40.7418 369.237 40.6938C369.621 40.6458 369.969 40.5858 370.281 40.5138H370.389V40.9458C370.101 41.4978 369.573 42.0138 368.805 42.4938C368.061 42.9738 367.125 43.2138 365.997 43.2138Z" fill="black"/>
<path d="M378.141 43.0338C377.517 43.0338 376.977 42.8058 376.521 42.3498C376.065 41.8938 375.837 41.3538 375.837 40.7298C375.837 40.1058 376.065 39.5658 376.521 39.1098C376.977 38.6538 377.517 38.4258 378.141 38.4258C378.765 38.4258 379.305 38.6538 379.761 39.1098C380.217 39.5658 380.445 40.1058 380.445 40.7298C380.445 41.3538 380.217 41.8938 379.761 42.3498C379.305 42.8058 378.765 43.0338 378.141 43.0338Z" fill="#FF9696"/>
</svg>
